<svg xmlns:xlink="http://www.w3.org/1999/xlink" viewBox="0 0 2145.91 2014.38" xmlns="http://www.w3.org/2000/svg"><polygon style="fill:#9673ff" points="2145.91 1237.86 1928.08 1490.82 1830.78 1127.69 2145.91 1237.86"></polygon><path style="fill:#160059" d="M1040.54,904l-138.92-5.43A207.52,207.52,0,0,1,718.28,771.33c-13.54-32.19-23.76-64.57-23.25-88.69.33-15,4.81-26.71,16-32.49,28.38-14.71,51.91-5.53,70.9,14,13.08,13.47,24,31.77,33,50.8a213.55,213.55,0,0,0,154.56,119c45.49,8.5,86.49,16,86.49,16a3.09,3.09,0,0,0,1.11-6.08s-41-7.54-86.47-16A207.43,207.43,0,0,1,820.51,712.32c-9.28-19.66-20.66-38.54-34.18-52.46-20.93-21.54-46.9-31.41-78.18-15.2-13.09,6.79-18.91,20.23-19.29,37.84-.53,24.8,9.8,58.13,23.72,91.22a213.7,213.7,0,0,0,188.8,131l138.92,5.43a3.09,3.09,0,1,0,.24-6.17Z"></path><path style="fill:#160059" d="M1061.25,847.21c20.07-12.36,44.24-17.06,67-8.77A41.54,41.54,0,0,1,1144.54,850c2.21,2.73,3.73,5.67,3.28,8.62a9,9,0,0,1-3.45,5.4c-4,3.43-8.19,2.86-12.17,1.08-5-2.21-9.73-6.12-14.08-8.55-12.22-6.86-26.35-7.87-38.75-.83a3.09,3.09,0,1,0,3.05,5.37c10.45-5.94,22.37-4.93,32.68.85,4.49,2.52,9.46,6.52,14.59,8.81,6.12,2.72,12.44,3.25,18.66-2,3.45-2.91,5.11-6.06,5.58-9.19a15,15,0,0,0-1.87-9.37c-4.21-7.94-14.81-15-21.65-17.5-24.62-8.95-50.73-4-72.4,9.3a3.09,3.09,0,0,0,3.24,5.27Z"></path><path style="fill:#160059" d="M1081.2,861.79c18,5.32,38.12,15.61,43.41,34.75,1.33,4.79,2.48,9.7.77,14.53-2.27,6.39-9.24,11.45-15.14,6.55-2.12-1.76-3-4.75-3.7-7.85-.89-3.89-1.39-8-2.42-11.13-2.46-7.44-8.09-13.16-13.11-18.95a3.09,3.09,0,0,0-4.67,4c4.5,5.18,9.71,10.18,11.91,16.84,1.2,3.62,1.62,8.63,2.89,13,1,3.56,2.62,6.7,5.16,8.81,9.5,7.89,21.25,1,24.9-9.25,2.15-6.06,1-12.23-.63-18.23-5.87-21.2-27.73-33.15-47.62-39a3.09,3.09,0,1,0-1.75,5.92Z"></path><path style="fill:#160059" d="M1085.45,882.35c4.33,11.68,7.37,20.27.6,32.15a15.64,15.64,0,0,1-5.18,5.43c-1.69,1-3.61,1.53-5.43.42-1.35-.82-1.54-2.51-1.71-4.21-.28-2.73-.07-5.65-.3-7.75-.87-7.74-4.52-14.58-8.56-21.1a3.09,3.09,0,0,0-5.25,3.25c3.56,5.74,6.91,11.72,7.67,18.53.28,2.58-.06,6.37.56,9.56.58,3,1.91,5.5,4.38,7a10.48,10.48,0,0,0,9.73.64c4-1.62,7.56-5.38,9.46-8.72,7.86-13.79,4.85-23.78-.17-37.35a3.09,3.09,0,0,0-5.8,2.15Z"></path><path style="fill:#ff4a4a" d="M1616.27,931.82a170.62,170.62,0,1,0-295.52-170.63Z"></path><path style="fill:#9673ff" d="M793.28,721.9A160.43,160.43,0,0,0,515.4,882.33Z"></path><path style="fill:#160059" d="M1627.4,576s-70.74,29.85-118.14-13.44c-50-45.67-22.21-77.38-3.55-79.32C1560.9,477.56,1627.4,576,1627.4,576Z"></path><path style="fill:#1b055d" d="M1296.74,1011.3,1223.06,1050c-16.71,8.76-31.65,20.23-43.28,34.59s-20.77,30.48-25.84,48.49-6.91,36.28-4.52,54.3,7.76,35.43,17.2,51.22l161.61,270.37,17.58,31.69,63.4-35.16-17.58-31.7-143.82-280.24c-2.5-4.88-3.36-10.31-3.73-15.66s1-10.38,2.72-15.4,4.94-9,8.37-12.67,7.75-6,12.33-8l76-33.82,48.32-23.39-46.79-96.63Z"></path><path style="fill:#1b055d" d="M1424.54,1086.39l-63.67,120.53c-6.19,11.71-10.57,24.18-11.63,37.12s-.29,25.93,3.86,38.39,10,24,18.5,33.52,18.25,17.83,29.94,23.36l208.94,98.75,32.13,16.76,33.51-64.29L1644,1373.77,1443.39,1259l-.37-2.7,1.54-.94,72.87-115.18,26.91-46.45-92.9-53.82Z"></path><polygon style="fill:#ff4a4a" points="1380.18 1609.52 1373.09 1591.84 1365.7 1567.37 1414.64 1552.59 1422.03 1577.06 1429.12 1611.11 1434.26 1628.13 1365.06 1662.25 1350.13 1670.93 1332.8 1641.07 1347.73 1632.4 1380.18 1609.52"></polygon><path style="fill:#160059" d="M1350.88,1696.38l89.36-46.12a5.55,5.55,0,0,0-5.09-9.86l-89.36,46.12a5.55,5.55,0,0,0,5.09,9.86Z"></path><path style="fill:#160059" d="M1369.55,1591.56c4.37-.63,8.51-2.38,12.85-3.07a5.55,5.55,0,0,0-1.76-11c-4.28.68-8.37,2.43-12.69,3.06a5.54,5.54,0,1,0,1.6,11Z"></path><path style="fill:#160059" d="M1375.77,1610.81c4.69,0,9.41.25,14.1.09a5.54,5.54,0,1,0-.35-11.08c-4.62.15-9.25-.14-13.86-.09a5.54,5.54,0,1,0,.11,11.08Z"></path><polygon style="fill:#ff4a4a" points="1712.35 1475.53 1694.84 1468.04 1672.31 1455.96 1696.47 1410.91 1719 1422.99 1748.09 1442.06 1763.76 1450.47 1738.94 1523.52 1734.51 1540.2 1701.15 1531.34 1705.58 1514.66 1712.35 1475.53"></polygon><path style="fill:#160059" d="M1753,1557.68l30.6-95.8a5.55,5.55,0,0,0-10.57-3.37l-30.59,95.79a5.54,5.54,0,1,0,10.56,3.38Z"></path><path style="fill:#160059" d="M1692.14,1470.35c2.64-3.53,4.33-7.7,6.91-11.25a5.55,5.55,0,0,0-9-6.51c-2.55,3.52-4.21,7.64-6.81,11.14a5.54,5.54,0,1,0,8.88,6.62Z"></path><path style="fill:#160059" d="M1710.14,1479.57c3.29-3.35,6.84-6.47,10-9.9a5.54,5.54,0,1,0-8.08-7.59c-3.16,3.37-6.65,6.44-9.87,9.74a5.54,5.54,0,1,0,7.91,7.75Z"></path><polygon style="fill:#9673ff" points="534.01 1606.5 551.76 1630.23 566.12 1645.76 535.07 1674.48 520.71 1658.95 480.27 1623.48 465.68 1607.71 499.06 1551.63 516.92 1525.91 568.37 1561.63 550.51 1587.35 534.01 1606.5"></polygon><path style="fill:#160059" d="M536.65,1695.39l-80.07-72.45a5.22,5.22,0,0,0-7,7.74l80.08,72.44a5.21,5.21,0,0,0,7-7.73Z"></path><path style="fill:#160059" d="M561,1578c-4.93-2.44-9.15-6.12-14-8.6a5.21,5.21,0,1,0-4.74,9.28c4.92,2.51,9.18,6.21,14.16,8.66A5.21,5.21,0,1,0,561,1578Z"></path><path style="fill:#160059" d="M544.52,1598c-5.52-1.85-11.19-3.32-16.67-5.28a5.21,5.21,0,1,0-3.53,9.8c5.55,2,11.29,3.49,16.88,5.36a5.21,5.21,0,0,0,3.32-9.88Z"></path><polygon style="fill:#9673ff" points="1125.21 1445.32 1150.94 1430.61 1168.11 1418.27 1192.81 1452.61 1175.63 1464.95 1135.47 1500.74 1118.03 1513.28 1066.47 1473.28 1043.13 1452.39 1084.89 1405.72 1108.23 1426.6 1125.21 1445.32"></polygon><path style="fill:#160059" d="M1213.75,1453.59,1132,1524.17a5.22,5.22,0,0,0,6.83,7.9l81.71-70.6a5.21,5.21,0,1,0-6.81-7.88Z"></path><path style="fill:#160059" d="M1100.2,1415.08c-3,4.6-7.2,8.33-10.27,12.87a5.21,5.21,0,0,0,8.63,5.84c3.1-4.57,7.3-8.34,10.34-13a5.21,5.21,0,1,0-8.7-5.72Z"></path><path style="fill:#160059" d="M1118,1433.84c-2.51,5.25-4.66,10.7-7.28,15.9a5.21,5.21,0,0,0,9.3,4.71c2.66-5.26,4.85-10.78,7.39-16.1a5.22,5.22,0,0,0-9.41-4.51Z"></path><polygon style="fill:#160059" points="1320.13 997.67 1451.79 1169.63 1517.56 1135.72 1570.43 1059.62 1359.93 982.26 1320.13 997.67"></polygon><path style="fill:#160059" d="M1398.92,888.31l-53,54.81a4,4,0,0,1-6.5-1.2l-36-84.43a4,4,0,1,1,7.29-3.12l33.69,78.94,53.24-55.1a4,4,0,0,1,6.58,1.42l30,83.77,58.93-59.65a4,4,0,0,1,6.38,1.06l45.8,94.77a4,4,0,0,1-7.14,3.45l-43.35-89.71-59.41,60.14a4,4,0,0,1-6.55-1.45Z"></path><path style="fill:#160059" d="M648.32,876.78c9.71-11.37,16.62-26.23,17.63-45.37a3.69,3.69,0,1,1,7.37.39c-1.15,21.88-9.33,38.66-20.68,51.3,10.24,17.88,6.65,37-2.5,53.44-9.33,16.77-24.43,30.65-35.5,37.24-5.09,3-10.5,4.27-15.81,6.36a3.69,3.69,0,1,1-2.71-6.87c4.93-1.94,10-3,14.75-5.84,10.23-6.09,24.19-19,32.82-34.48,7.59-13.65,11.08-29.42,3.53-44.34a105.69,105.69,0,0,1-33.33,20.57c-5.86,2.31-13.19,5.1-20.14,5.35-7.84.28-15.28-2.39-20.27-11.58-3.13-5.78-2.11-11.91,1-17.45,4.06-7.27,11.74-13.38,15.55-15.53,17.26-9.73,43.31-11.37,58.32,6.81Zm-5.11,5.43c-12.47-16-34.88-14.1-49.58-5.81-3.12,1.76-9.41,6.75-12.73,12.7-1.83,3.28-2.79,6.9-.93,10.33,4.06,7.47,10.56,8.42,17,7.35,5-.83,10-2.82,14.22-4.47a97.29,97.29,0,0,0,32-20.1Z"></path><path style="fill:#160059" d="M1323.48,309.37c-1.4-20.91-6.78-44.79-20.22-61.47-2.28-2.82-7.07-8.08-11.92-10.34-4.3-2-8.64-2-12.16,1.84a14.71,14.71,0,0,0-3.66,8.43,33.93,33.93,0,0,0,1.22,12.18c3.19,12.16,7.74,23.86,10.62,36.1a3.35,3.35,0,1,0,6.53-1.53c-2.89-12.3-7.46-24.06-10.66-36.27a30.53,30.53,0,0,1-1.16-8.14,9.14,9.14,0,0,1,2-6.21c1.26-1.37,2.86-1.05,4.41-.32,3.92,1.82,7.69,6.19,9.52,8.47,12.61,15.64,17.44,38.1,18.75,57.71a3.36,3.36,0,0,0,6.7-.45Z"></path><path style="fill:#160059" d="M1309.23,321.27c-2.63-6.33-5.22-12.69-8.88-18.5a30.44,30.44,0,0,0-16.42-12.49c-4.65-1.38-9.31-1.23-13.13.78-4.07,2.13-7.38,6.41-8.45,13.78-.94,6.41,1.24,13.09,5.17,19.19a61.24,61.24,0,0,0,21.85,19.75,33.83,33.83,0,0,0,12.29,3.6c3.73.2,7.13-.72,9.42-3.13a3.36,3.36,0,1,0-4.87-4.62c-1,1.05-2.56,1.14-4.17,1.05a26.18,26.18,0,0,1-9.61-2.87,53.91,53.91,0,0,1-19.27-17.42c-3-4.65-4.89-9.69-4.18-14.58.67-4.61,2.4-7.48,4.94-8.82,2.36-1.23,5.24-1.13,8.11-.28a23.47,23.47,0,0,1,12.64,9.63c3.46,5.5,5.88,11.52,8.37,17.5a3.35,3.35,0,0,0,6.19-2.57Z"></path><path style="fill:#160059" d="M1265.06,313.8a37.58,37.58,0,0,0-9-.57c-10.46,1.12-14.8,12.48-12.56,21.53,1.77,7.2,11.78,18.74,22.34,23.85,7.87,3.8,15.89,4,21.52-1.85a3.35,3.35,0,0,0-4.85-4.63c-3.58,3.75-8.74,2.86-13.75.44-8.73-4.22-17.28-13.47-18.75-19.42-1.34-5.4.52-12.58,6.76-13.25a30.67,30.67,0,0,1,7.4.55,3.36,3.36,0,0,0,.93-6.65Z"></path><path style="fill:#160059" d="M1276.08,399.51c13.43,96.59,39.66,196.45,67.7,290.25a3.28,3.28,0,1,0,6.29-1.88c-27.94-93.49-54.1-193-67.49-289.28a3.28,3.28,0,1,0-6.5.91Z"></path><path style="fill:#160059" d="M1317.05,310.11c39.06,106.27,82,234.77,113.72,355.61a3.28,3.28,0,0,0,6.35-1.67c-31.8-121-74.78-249.76-113.91-356.21a3.28,3.28,0,1,0-6.16,2.27Z"></path><path style="fill:#160059" d="M1513.15,557c-22.62,24.68-26.72,47.91-20,65.19,6.82,17.5,24.91,29.29,47.54,30.66,7.62.46,15.77-1.48,22.92-3.93,16.75-5.71,27.29-16.5,35.22-29.59,7.6-12.55,12.75-27.26,18.9-41.41a3.35,3.35,0,1,0-6.15-2.67c-6,13.86-11,28.3-18.49,40.61-7.14,11.78-16.57,21.57-31.65,26.72-6.35,2.17-13.58,4-20.34,3.58-19.75-1.2-35.75-11.14-41.7-26.41-6-15.49-1.6-36.09,18.68-58.21a3.35,3.35,0,0,0-4.94-4.54Z"></path><path style="fill:#160059" d="M672.26,535.64c13.7,29.54,5.3,66.58-26.71,68.85-5.35.38-11.06-1.32-16.08-3.32-12.11-4.83-19.64-14-25.37-25-6-11.6-10.06-25.2-14.93-38.26a3.09,3.09,0,0,0-5.79,2.16c5,13.3,9.11,27.14,15.24,38.94,6.42,12.37,15,22.54,28.56,27.95,5.87,2.34,12.56,4.18,18.81,3.74,36.36-2.58,47.44-44,31.87-77.61a3.09,3.09,0,1,0-5.6,2.6Z"></path><path style="fill:#160059" d="M586.4,535.93c-7.1-.28-15.07-1.6-20.21-6.88-7.29-7.5-7.58-22,3.07-26.36,4.83-2,10-.82,15-.5a3.09,3.09,0,0,0,.4-6.16c-5.94-.39-12-1.4-17.76,1-14.75,6-15.25,26-5.16,36.38,6.24,6.41,15.77,8.4,24.4,8.74a3.09,3.09,0,1,0,.24-6.17Z"></path><path style="fill:#160059" d="M1629,576s-49.2-43.69-63-59.06c-40.89-45.58,37.11-86.17,58.09-24.12,11.61,34.36,6.06,61.45,4.9,83.18Z"></path><path style="fill:#160059" d="M1594.94,615c23.31-12.23,52.06-30.33,62.74-54.47,5.25-11.85,1.43-29-15.24-21.73-13.07,5.69-19.74,18.22-25.94,29.88C1609.94,581,1594.94,615,1594.94,615Z"></path><path style="fill:#160059" d="M1719.13,1074.76C1756,1026.43,1769.32,956,1758,895.64c-12.45-66.56-55.9-128.48-119.16-149.17-30.12-9.85-62.48,2.34-74.12,31.94s5,58.16,31.47,75.23c40.37,26,60.81,37.18,73.77,70.89,14.67,38.15,17.48,81.83-.73,118.07a3.41,3.41,0,1,0,6.09,3.06c19.06-37.93,16.35-83.65,1-123.58-13.49-35.09-34.41-47.07-76.44-74.17-23.69-15.27-39.17-40.67-28.82-67,10.3-26.18,39-36.67,65.66-28,61,19.94,102.58,79.8,114.58,143.95,11,58.54-1.89,126.86-37.61,173.74a3.4,3.4,0,0,0,5.42,4.12Z"></path><path style="fill:#160059" d="M1644.18,1086.68c-4.31-.32-8.78-.58-13.1-1.32-6.84-1.18-13.28-3.56-18.33-8.74-7.89-8.11-4.5-22.3,4.72-27.4,5.4-3,12.68-2.59,18.47-1.85a147.46,147.46,0,0,1,27.43,6.27,3.41,3.41,0,0,1-2.18,6.46,140.77,140.77,0,0,0-26.12-6c-4.47-.57-10.13-1.25-14.3,1.06-5.62,3.11-8,11.72-3.14,16.67,4,4.11,9.19,5.84,14.61,6.78,6.06,1,12.43,1.1,18.17,1.74a3.62,3.62,0,0,1,3.26,3.75,4.21,4.21,0,0,1-.65,2c-.34.53-1.17,1.33-1.48,1.82-.59.94-1.21,1.85-1.85,2.75a94.24,94.24,0,0,1-6.8,8.46c-1.7,1.89-3.46,3.73-5.16,5.61-3.51,3.88-9.35,10.84-11.85,17.87-1.36,3.84-1.78,7.7.59,10.81a4.1,4.1,0,0,0,3.11,1.29,11.9,11.9,0,0,0,4.82-.7c3.87-1.44,7.34-4.4,10.6-7.67,3.62-3.62,7-7.66,10.15-10.87,2.1-2.12,4-4.41,6.09-6.58.13-.15,1.54-1.83,1.89-2.13a3.3,3.3,0,0,1,3.63-.6,3.88,3.88,0,0,1,1.82,1.51,3.7,3.7,0,0,1,.54,2.71,5.46,5.46,0,0,1-1.51,2.67,27,27,0,0,0-2.15,2c-1.76,2.48-3.34,5.16-4.86,7.81-2.44,4.26-5.55,9-7.33,13.89-1.51,4.19-2,8.55.35,12.87a2.38,2.38,0,0,0,2.42,1.18,10.48,10.48,0,0,0,3.33-.85c6.53-2.63,10.59-10,14.46-15.72a71.62,71.62,0,0,0,4.65-7.54c.52-1,1-2.08,1.49-3.1.29-.54,1-2,1.15-2.17a3.21,3.21,0,0,1,4.05-1.08,3.29,3.29,0,0,1,1.92,4.22c-2.07,7-5.82,15-7.41,22.81-1.37,6.81-1,13.52,4.67,19.13,2.73,2.69,6,1.63,8.9-.34a31.06,31.06,0,0,0,9-10.2c8.32-15.55,12.18-35.24,6.5-52.27a98.56,98.56,0,0,0-3.29-9.76,9.15,9.15,0,0,0-2.64-3.9,3.41,3.41,0,1,1,3.8-5.66,15.94,15.94,0,0,1,5.06,6.77,106.53,106.53,0,0,1,3.54,10.4c6.25,18.78,2.21,40.5-7,57.64-2.63,4.9-8.29,11.65-14.3,14.4-4.88,2.21-10,2.11-14.37-2.22-7.15-7-8.28-15.3-6.84-23.82-3,3.74-6.55,7-10.81,8.74-5.08,2-11.11,2.31-14.25-3.36-3.43-6.2-3-12.47-.8-18.5.1-.26.2-.54.31-.81a33.27,33.27,0,0,1-10.4,6.82,18.26,18.26,0,0,1-9.4.88,10.21,10.21,0,0,1-6.32-3.72c-3.8-5-3.77-11.1-1.59-17.23,2.81-7.91,9.27-15.8,13.21-20.16,1.71-1.88,3.46-3.72,5.16-5.61a85.77,85.77,0,0,0,6.31-7.86Z"></path><path style="fill:#160059" d="M1249.41,337.84a11.18,11.18,0,0,0-6.51,2.57c-7.9,7-6.15,17.79-.58,25.48,4.72,6.53,13.31,11.27,21.32,11.19,3.42,0,6.49-1.14,9.8-1.78a3.35,3.35,0,1,0-1.28-6.58c-2.91.56-5.59,1.62-8.6,1.65-6,.06-12.3-3.55-15.81-8.41s-5.53-12-.4-16.53a4.15,4.15,0,0,1,2.46-.89,3.36,3.36,0,1,0-.4-6.7Z"></path><path style="fill:#160059" d="M1681.29,490.24c11.4-12.79,25.26-24.22,34.89-38.46a3.35,3.35,0,1,0-5.55-3.76c-9.47,14-23.14,25.19-34.35,37.76a3.35,3.35,0,1,0,5,4.46Z"></path><path style="fill:#160059" d="M1707.11,534.72c25.9-6.56,52.22-15.14,78.42-20a3.36,3.36,0,1,0-1.22-6.6c-26.34,4.87-52.81,13.48-78.84,20.07a3.36,3.36,0,0,0,1.64,6.51Z"></path><path style="fill:#160059" d="M1701.8,582.7c17.82,4.39,36.47,10.32,53.91,15.9a3.35,3.35,0,0,0,2-6.39c-17.57-5.62-36.38-11.59-54.34-16a3.35,3.35,0,0,0-1.61,6.51Z"></path><path style="fill:#160059" d="M627.88,1271c-19.67-10.08-134.21-73-180.13-192.69-15.36-40-13.05-70.73-2.49-94.09C469.87,929.77,540,915.09,540,915.09a3.09,3.09,0,0,1,1.26,6s-66.95,13.77-90.38,65.62c-10,22.18-11.95,51.32,2.62,89.32C503,1205,633.42,1266.86,633.42,1266.86a3.1,3.1,0,0,1,1.62,1.82,3.14,3.14,0,0,1-.21,2.42l-115,215,76.49,48.34L703.2,1356.32a156.22,156.22,0,0,0,5.53-150.78l-84.2-166.84a3.12,3.12,0,0,1,.37-3.36L664.66,987a3.09,3.09,0,0,1,4.77,3.92L631,1037.71l83.29,165a162.36,162.36,0,0,1-5.75,156.74L600,1540.3a3.15,3.15,0,0,1-1.94,1.42,3.11,3.11,0,0,1-2.36-.4l-81.59-51.56a3.09,3.09,0,0,1-1.07-4.07Z"></path><path style="fill:#160059" d="M1063.11,1369.52,858.7,1133.63c-42.05-48.53-68-112.55-98-162.05-19.56-32.25-40.81-58.31-69.88-69.23a3.09,3.09,0,0,1,2.17-5.78c30.26,11.36,52.63,38.24,73,71.81,29.86,49.23,55.55,112.94,97.37,161.2l206.07,237.8a3.1,3.1,0,0,1,.12,3.9L1022.31,1433a3.15,3.15,0,0,1-2.1,1.19,3.11,3.11,0,0,1-2.33-.69L760.22,1221.17a3.09,3.09,0,1,1,3.93-4.77l255.19,210.34Z"></path><path style="fill:#160059" d="M572.11,483.88c0,15.68,49.57,53.28,102.95,50.46,48.1-2.54,55.58-80.25,0-94.06-65.64-16.31-102.95,43.6-102.95,43.6Z"></path><path style="fill:#160059" d="M589.1,499.28a55.87,55.87,0,0,0-14.51,1.59c-12.33,2.83-21.9,15-12.11,27,8,9.82,39.51,13.52,28.07,32.91-7.86,13.31-27.16,11.81-39.84,8.84C520.57,562.5,499,537,494.47,507.76s20.71-59.44,49.16-65.74c24.5-5.42,55.92,3.14,62.28,29.93Z"></path><path style="fill:#160059" d="M523.17,530.58c-28.51,1.59-52.77,7.16-74.57,26.26-24.68,21.64-28.23,62.16,3.11,80.1,22.67,13,54.68,7,75-7.78,7.08-5.14,14.36-10.7,19.46-17.71a50.13,50.13,0,0,0,4.26-7.24c.59-1.19,1.93-4.91,1.68-3.61-1.85,9.55-2.71,19.71,3.86,27.93,14.23,17.8,42.44,6,48.83-11.95,7.76-21.78-3.31-39.65-12.32-58.37Z"></path><path style="fill:#fff" d="M657.86,665.49a24.31,24.31,0,0,1-.07,2.83,23.12,23.12,0,0,1-5.39,12.75,12.46,12.46,0,0,1-9.16,4.38c-8.12.1-13.16-4.64-16-11.35-3.73-8.9-3.27-21.47-1.57-28.46a3.09,3.09,0,1,1,6,1.45c-1.47,6-2,16.93,1.26,24.62,1.83,4.35,4.94,7.62,10.2,7.56,2.46,0,4.31-1.64,5.67-3.62a17.27,17.27,0,0,0,2.8-7.88,28.24,28.24,0,0,0-.31-6.16c-.1-.8-.84-2.25-1-3.1a4.12,4.12,0,0,1,.07-2.15,3.22,3.22,0,0,1,1.54-1.87,3.33,3.33,0,0,1,2.8-.22,7.79,7.79,0,0,1,2.78,1.79c1.32,1.24,2.67,3.11,3.59,4,2.83,2.68,5.72,5.41,9.47,6.73a15,15,0,0,0,8,.6,5.14,5.14,0,0,0,3.09-1.79c.76-1.06.88-2.56.42-4.54-1.26-5.41-4.56-7.9-7.86-11.89a3.09,3.09,0,1,1,4.76-3.94c4,4.78,7.61,7.95,9.12,14.43,1,4.19.18,7.3-1.43,9.54a11.2,11.2,0,0,1-6.65,4.19,21.35,21.35,0,0,1-11.52-.77c-4.13-1.45-7.49-4.19-10.65-7.11Z"></path><path style="fill:#160059" d="M202.76,528.57s21.09,68,41.19,132.78A213.73,213.73,0,0,0,419.37,809.81c35.56,4.88,70.43,6.24,94.24-.7,16.91-4.92,28.39-14,31.56-28.43,7.56-34.41-8.69-56.94-34.91-71.57-16.95-9.46-38.13-15.57-59.52-19.45A207.39,207.39,0,0,1,300.29,574.58c-20-41.74-37.87-79.38-37.87-79.38a3.09,3.09,0,1,0-5.58,2.65s17.89,37.65,37.87,79.39a213.6,213.6,0,0,0,154.93,118.5c20.7,3.75,41.21,9.61,57.61,18.76C531,727.78,546,748.13,539.14,779.36c-2.7,12.27-12.84,19.63-27.25,23.82-23.17,6.74-57.09,5.26-91.69.51A207.55,207.55,0,0,1,249.85,659.52c-20.1-64.78-41.19-132.78-41.19-132.78a3.09,3.09,0,1,0-5.9,1.83Z"></path><path style="fill:#160059" d="M202.88,521.74c-23,5.17-47.38,1.77-66.26-13.47A41.36,41.36,0,0,1,125,492.11c-1.2-3.29-1.69-6.57-.31-9.22a9,9,0,0,1,5-4c4.94-1.92,8.67,0,11.86,2.93,4,3.7,7.23,8.94,10.54,12.65,9.34,10.45,22.38,16,36.4,13.37a3.09,3.09,0,0,0-1.15-6.07c-11.82,2.22-22.76-2.6-30.64-11.41-3.43-3.84-6.83-9.23-10.94-13.07-4.9-4.56-10.71-7.11-18.3-4.16-4.21,1.64-6.8,4.08-8.26,6.89a15.09,15.09,0,0,0-1.28,9.48c1.41,8.87,9.14,19,14.81,23.57,20.38,16.45,46.68,20.27,71.5,14.68a3.09,3.09,0,0,0-1.36-6Z"></path><path style="fill:#160059" d="M188.75,501.47c-15.28-10.86-31-27.13-29.8-47,.3-4.95.81-10,4-14,4.22-5.31,12.45-7.83,16.44-1.28,1.44,2.35,1.29,5.46,1,8.62-.42,4-1.29,8-1.32,11.32-.09,7.83,3.38,15.07,6.25,22.17A3.09,3.09,0,1,0,191,479c-2.57-6.36-5.88-12.78-5.81-19.79,0-3.82,1.27-8.7,1.49-13.23.17-3.7-.31-7.19-2-10-6.43-10.55-19.77-7.89-26.55.66-4,5-5,11.24-5.32,17.46-1.34,21.95,15.47,40.34,32.38,52.36a3.09,3.09,0,1,0,3.58-5Z"></path><path style="fill:#160059" d="M191.39,480.64c-.3-12.45-.39-21.56,9.86-30.6a15.46,15.46,0,0,1,6.67-3.46c1.92-.4,3.91-.28,5.27,1.36,1,1.21.64,2.88.25,4.54-.62,2.67-1.77,5.37-2.23,7.43-1.69,7.6-.46,15.26,1.25,22.74a3.09,3.09,0,0,0,6-1.38c-1.51-6.58-2.74-13.32-1.25-20,.57-2.54,2.12-6,2.57-9.23.42-3,0-5.82-1.87-8a10.48,10.48,0,0,0-9-3.76c-4.3.23-8.89,2.63-11.77,5.17-11.92,10.51-12.31,20.93-12,35.39a3.09,3.09,0,1,0,6.18-.15Z"></path><path style="fill:#160059" d="M483.29,419.24,443,386a3.43,3.43,0,0,0-4.37,5.29l40.32,33.23a3.43,3.43,0,1,0,4.36-5.29Z"></path><path style="fill:#160059" d="M535.23,381.74,494.92,275.56A3.43,3.43,0,1,0,488.5,278l40.32,106.17a3.43,3.43,0,0,0,6.41-2.43Z"></path><path style="fill:#160059" d="M610,370.63l15.66-43.28a3.43,3.43,0,1,0-6.45-2.33L603.57,368.3a3.43,3.43,0,1,0,6.45,2.33Z"></path><path style="fill:#160059" d="M317.06,1088C99.85,1191.83,19.52,1429.68,56.45,1620.09c18.51,95.5,66.5,179.05,141.32,228s176.54,63.42,302.71,20.3c158.58-54.19,265.73-203.18,364.06-338.85a3.58,3.58,0,0,0-5.8-4.2c-97.48,134.49-203.37,282.56-360.58,336.28C374.6,1903.84,275,1890,201.69,1842.09S81.61,1712.25,63.47,1618.73c-36.37-187.6,42.68-422,256.68-524.27a3.58,3.58,0,1,0-3.09-6.46Z"></path><path style="fill:#160059" d="M918.21,732.5c233.34-45.91,490.3-192.52,608.9-402,25.24-44.59,52.54-109.6,58.61-171.9,4.09-42-1.49-82.83-23.54-115.5-14.83-22-37.72-34.13-63.34-39.54-37.7-8-81.32-1.29-112.84,9.42-98.2,33.36-203.84,128.22-228.2,234.25a3.43,3.43,0,0,0,6.69,1.54C1188.35,144.84,1292,52.1,1388.21,19.42c30.5-10.36,72.72-16.92,109.21-9.21,23.86,5,45.27,16.22,59.07,36.68,21.18,31.38,26.33,70.62,22.4,111-6,61.32-32.9,125.29-57.74,169.18C1403.47,535,1148.39,680.23,916.89,725.77a3.43,3.43,0,0,0,1.32,6.73Z"></path><path style="fill:#160059" d="M1848.34,855.24C1949,796.14,2075,874.62,2082.7,986.57c7.5,109.18-63,191.36-140.53,258-93.05,80-223.82,107.08-337.67,142.81-215.34,67.59-480.42,178-593.94,389.23-27.48,51.15-20.93,109.85,11.7,156.17,30.27,43,83,75.32,151.88,80.8,102.2,8.14,240.27-43.06,392.17-207.92a3.43,3.43,0,0,0-5-4.65c-149.86,162.65-285.76,213.77-386.59,205.73-66.51-5.29-117.57-36.39-146.82-77.9-31.12-44.2-37.47-100.18-11.26-149,112.69-209.75,376.18-318.83,589.95-385.93,114.71-36,246.34-63.57,340.09-144.16,79.11-68,150.56-152.2,142.9-263.66-8-116.81-139.67-198.43-244.67-136.76a3.43,3.43,0,1,0,3.47,5.91Z"></path><path style="fill:#160059" d="M289.88,1463.57a44.32,44.32,0,0,0-2.77-14.12c-2.09-6.14-4.8-11.87-6.44-16.45-1.19-3.34-1.81-6.2-1.61-8.35a6.76,6.76,0,0,1,2.87-5.23,10.2,10.2,0,0,1,6.13-1.57c3.05,0,7.45.86,13.58,2.75a98.51,98.51,0,0,1,16.44,6.25A3.43,3.43,0,1,1,315,1433a92.46,92.46,0,0,0-15.35-5.8,54.05,54.05,0,0,0-10.39-2.38,12.56,12.56,0,0,0-3.29.23,3.23,3.23,0,0,0-.06.33,5.33,5.33,0,0,0,.07,1.1,22.35,22.35,0,0,0,1.18,4.25c3.43,9.6,11.13,24.06,9.31,37.12a4.45,4.45,0,0,1-1.57,3,4.55,4.55,0,0,1-4.34.79,16.38,16.38,0,0,1-3.84-1.89,23.52,23.52,0,0,0-3.95-2.3c-4-1.31-10.62-4-16.74-5.08a20.38,20.38,0,0,0-6.11-.4c.86,2.22,2.06,5.34,2.18,5.6,2.11,4.71,10.94,15.45,15.53,23.77,2.5,4.53,3.65,8.61,3.09,11.16a5.23,5.23,0,0,1-1.93,3.19,5.47,5.47,0,0,1-4.85.79,28.63,28.63,0,0,1-6.56-3.23,20.55,20.55,0,0,0-4.86-2.46,61.37,61.37,0,0,0-9.72-1.59,27.68,27.68,0,0,0-9,.46c-1.05.29-1.79.58-2.06,1.23-.45,1,0,2.37.63,3.92,1.41,3.66,4.26,8,7.17,12.55,2.51,3.94,5.23,7.74,7.89,11.58a3.43,3.43,0,1,1-5.63,3.91c-2.71-3.91-5.49-7.79-8.05-11.8-3.17-5-6.23-9.76-7.78-13.76-1.37-3.55-1.57-6.67-.55-9.08a8.57,8.57,0,0,1,4.82-4.56c2.66-1.14,6.83-1.71,13-1.29a69.63,69.63,0,0,1,10.83,1.75c2.62.62,6.23,3,9.29,4.71l.23.12,0-.13a41,41,0,0,0-4.06-7.71c-4.92-7.81-11.8-16.56-13.67-20.72-.23-.51-3.42-8.17-3.59-10a3.52,3.52,0,0,1,1.79-3.64c3.37-1.89,8.14-2.06,13.2-1.15,6.45,1.15,13.42,3.93,17.65,5.3a24.32,24.32,0,0,1,4.65,2.5Z"></path><path style="fill:#160059" d="M918.55,175.59a3.43,3.43,0,0,0-4.34-4.33l-84,28a3.42,3.42,0,0,0-1.34,5.68l56,56a3.42,3.42,0,0,0,5.68-1.34ZM837.6,204l48.18,48.18,24.09-72.27Z"></path><polygon style="fill:#160059" points="815.1 1797.32 908.17 1814.96 832.74 1890.4 815.1 1797.32"></polygon><polygon style="fill:#9673ff" points="188.94 1019.45 127.13 1091.23 99.52 988.18 188.94 1019.45"></polygon><path style="fill:#160059" d="M1701.31,1655.8v30.27a3.43,3.43,0,0,0,6.86,0V1655.8a3.43,3.43,0,0,0-6.86,0Z"></path><path style="fill:#160059" d="M1753,1700.67h-30.27a3.43,3.43,0,1,0,0,6.86H1753a3.43,3.43,0,1,0,0-6.86Z"></path><path style="fill:#160059" d="M1701.31,1722.14v30.27a3.43,3.43,0,1,0,6.86,0v-30.27a3.43,3.43,0,0,0-6.86,0Z"></path><path style="fill:#160059" d="M1686.7,1700.67h-30.27a3.43,3.43,0,0,0,0,6.86h30.27a3.43,3.43,0,1,0,0-6.86Z"></path><path style="fill:#160059" d="M1017,1038.77V1069a3.43,3.43,0,1,0,6.85,0v-30.27a3.43,3.43,0,1,0-6.85,0Z"></path><path style="fill:#160059" d="M1068.75,1083.65h-30.27a3.43,3.43,0,0,0,0,6.86h30.27a3.43,3.43,0,1,0,0-6.86Z"></path><path style="fill:#160059" d="M1017,1105.11v30.27a3.43,3.43,0,1,0,6.85,0v-30.27a3.43,3.43,0,1,0-6.85,0Z"></path><path style="fill:#160059" d="M1002.41,1083.65H972.14a3.43,3.43,0,1,0,0,6.86h30.27a3.43,3.43,0,1,0,0-6.86Z"></path><path style="fill:#160059" d="M123.6,729.23V759.5a3.43,3.43,0,0,0,6.86,0V729.23a3.43,3.43,0,0,0-6.86,0Z"></path><path style="fill:#160059" d="M175.34,774.11H145.06a3.43,3.43,0,0,0,0,6.86h30.28a3.43,3.43,0,0,0,0-6.86Z"></path><path style="fill:#160059" d="M123.6,795.57v30.27a3.43,3.43,0,0,0,6.86,0V795.57a3.43,3.43,0,1,0-6.86,0Z"></path><path style="fill:#160059" d="M109,774.11H78.72a3.43,3.43,0,0,0,0,6.86H109a3.43,3.43,0,0,0,0-6.86Z"></path><path style="fill:#160059" d="M1066.74,345.79v0Zm-75.86,36.53,30.33,24.2Zm-18.74,82.09,37.83-8.64Zm52.49,65.83,16.84-35Zm84.2,0-16.83-35Zm52.5-65.83-37.83-8.64Zm-18.73-82.09-30.34,24.2Z"></path><path style="fill:#160059" d="M1111.92,528.75l-16.83-35a3.43,3.43,0,0,0-6.18,3l16.83,35a3.43,3.43,0,1,0,6.18-3Zm-84.19,3,16.83-35a3.43,3.43,0,0,0-6.18-3l-16.84,35a3.43,3.43,0,0,0,6.19,3Zm134.36-70.66-37.83-8.63a3.43,3.43,0,0,0-1.52,6.69l37.83,8.63a3.43,3.43,0,0,0,1.52-6.69ZM972.9,467.75l37.83-8.63a3.43,3.43,0,0,0-1.53-6.69l-37.82,8.63a3.43,3.43,0,0,0,1.52,6.69ZM988.74,385l30.33,24.19a3.43,3.43,0,0,0,4.28-5.36L993,379.64a3.43,3.43,0,1,0-4.27,5.36Zm151.72-5.36-30.34,24.19a3.43,3.43,0,0,0,4.28,5.36L1144.73,385a3.43,3.43,0,0,0-4.27-5.36Zm-77.15-33.85v38.8a3.43,3.43,0,1,0,6.85,0v-38.8a3.43,3.43,0,1,0-6.85,0Z"></path><path style="fill:#160059" d="M1505,405c19.37-20.95,32.69-45.45,47.59-69.5a3.43,3.43,0,1,0-5.83-3.61c-14.66,23.67-27.72,47.83-46.79,68.46a3.43,3.43,0,1,0,5,4.65Z"></path><path style="fill:#160059" d="M1565.72,309.75c2.26-4.17,4.16-8.46,6.28-12.69a3.43,3.43,0,0,0-6.13-3.08c-2.09,4.17-4,8.4-6.18,12.5a3.43,3.43,0,0,0,6,3.27Z"></path><path style="fill:#160059" d="M70.27,1283.4C35.93,1332.74,14,1401.49,8.84,1463.33a5.07,5.07,0,0,0,10.11.85c5-60.14,26.25-127,59.65-175a5.07,5.07,0,1,0-8.33-5.79Z"></path><path style="fill:#160059" d="M2,1508.29c-.77,5.88-1.91,11.87-2,17.82a5.07,5.07,0,0,0,10.14.08c0-5.54,1.16-11.1,1.88-16.58A5.07,5.07,0,0,0,2,1508.29Z"></path></svg>